<svg width="16" height="20" fill="none" xmlns="http://www.w3.org/2000/svg"><g clip-path="url(#clip0)" fill="#FF6B09"><path d="M14.15 10.05c-.171-.384-.408-.763-.754-1.2-.874-1.1-1.14-3.548-1.143-3.572a.296.296 0 00-.205-.25.3.3 0 00-.314.086c-1.042 1.166-.604 2.966-.367 3.685.065.197.136.429.187.664.385 1.9-.359 2.76-.533 2.934-.17.047-.285.023-.391-.091-.367-.403-.489-1.721-.317-3.44.036-.349.027-.663-.024-.957-.362-2.111-1.69-3.466-2.028-3.94C7.33 2.593 7.236.305 7.233.285a.296.296 0 00-.462-.232C5.22 1.108 5.353 3.648 5.57 5.067c.05.329.148.663.317 1.086.601 1.513-.118 3.466-.124 3.483-.006.018-.012.032-.015.05-.092.482-.246.77-.418.77a.202.202 0 01-.056-.01c-.21-.043-.32-.266-.323-.46-.012-2.505-2.526-3.348-2.552-3.357a.295.295 0 00-.314.088.289.289 0 00-.042.323c.03.062.125.332.06 1.286a10.97 10.97 0 01-.465 2.52 12.277 12.277 0 00-.498 3.885c.46 5.002 7.653 5.878 11.922 3.06.468-.308.85-.66 1.131-1.048 1.575-2.173.649-5.125-.041-6.693zM3.21 14.828a.293.293 0 01-.28.309h-.017a.295.295 0 01-.296-.276c-.027-.43-.02-.879.012-1.366a.299.299 0 01.317-.273.296.296 0 01.275.314 9.48 9.48 0 00-.012 1.292zm.144-2.602a.294.294 0 01-.293.259c-.012 0-.024 0-.038-.003a.296.296 0 01-.258-.326l.142-1.134a.299.299 0 01.332-.255c.163.02.278.167.257.329l-.142 1.13zM12.147 4.018a.294.294 0 01-.247-.335c.018-.12.125-.73.416-1.037a.297.297 0 01.418-.014c.12.111.126.297.014.416-.123.13-.228.502-.263.725a.296.296 0 01-.338.245zM1.352 5.48c-.057-.218-.197-.578-.333-.696a.292.292 0 01-.027-.414.297.297 0 01.418-.027c.319.277.486.875.516.992a.294.294 0 01-.213.357.297.297 0 01-.36-.211z"/></g><defs><clipPath id="clip0"><path fill="#fff" transform="translate(.88)" d="M0 0h14.214v19.382H0z"/></clipPath></defs></svg>